#!OML:ASF H:\MichaelJackson\Top Level 1\Subject 1\Session 1\male.ASF
:FULLY-SPECIFIED
:DEGREES
1028
root 2.19417 16.1291 36.4716 3.00582 2.81808 -1.31975
lowerback -2.60331 2.0246 -8.03059
upperback -2.55369 2.78073 -5.64949
thorax -1.28848 1.46169 -1.31394
lowerneck -6.01566 -5.37732 -1.38188
upperneck 1.84809 -7.48338 9.88683
head 2.13582 -3.51797 3.17153
rclavicle 1.63003e-014 3.18055e-014
rhumerus -56.6385 44.9042 -94.7609
rradius 112.582
rwrist -1.73439
rhand 0.260979 -6.70467
rfingers 7.12502
rthumb 25.8403 -394.969
lclavicle 1.63003e-014 3.18055e-014
lhumerus -55.0249 -44.5604 114.857
lradius 57.2748
lwrist 17.3606
lhand 35.1057 27.4309
lfingers 7.12502
lthumb 58.2292 42.9448
rfemur -11.7208 0.551383 -8.16442
rtibia 29.2001
rfoot 17.6888 -7.22447
rtoes -42.1338
lfemur -7.24675 -10.3573 3.76
ltibia 28.4201
lfoot -21.893 -33.854
ltoes 9.23442
1029
root 2.10635 16.0882 36.4972 3.10204 2.52962 -1.23749
lowerback -2.68467 1.93244 -7.85727
upperback -2.61811 2.65864 -5.82865
thorax -1.28828 1.39783 -1.59429
lowerneck -6.04547 -5.1707 -1.29184
upperneck 1.70262 -7.20009 9.89717
head 2.07158 -3.37978 3.17186
rclavicle -1.5704e-014 0
rhumerus -56.1079 46.0166 -90.941
rradius 113.006
rwrist -3.8334
rhand 0.316659 -7.1338
rfingers 7.12502
rthumb 25.8936 -395.391
lclavicle -1.5704e-014 0
lhumerus -55.1664 -44.863 115.042
lradius 56.8131
lwrist 17.3939
lhand 35.4866 28.0492
lfingers 7.12502
lthumb 58.5603 43.2571
rfemur -11.5538 0.315891 -8.27929
rtibia 29.0646
rfoot 16.1562 -6.01542
rtoes -44.7541
lfemur -6.29952 -10.6751 4.41578
ltibia 26.3536
lfoot -20.8158 -36.3658
ltoes 12.0431
1030
root 2.02199 16.0476 36.5215 3.17152 2.25071 -1.16459
lowerback -2.72073 1.83989 -7.62663
upperback -2.67031 2.5306 -6.00219
thorax -1.29967 1.33013 -1.90237
lowerneck -6.04745 -4.957 -1.1755
upperneck 1.51934 -6.90469 9.89117
head 1.98735 -3.23771 3.16257
rclavicle -2.3059e-014 -6.36111e-015
rhumerus -55.1547 47.1714 -86.6046
rradius 113.108
rwrist -6.14405
rhand 0.371803 -7.67694
rfingers 7.12502
rthumb 25.9464 -395.926
lclavicle -2.3059e-014 -6.36111e-015
lhumerus -55.2765 -45.0856 115.179
lradius 56.2888
lwrist 17.3929
lhand 35.8865 28.5285
lfingers 7.12502
lthumb 58.9067 43.4075
rfemur -11.3981 0.0059183 -8.37187
rtibia 28.9791
rfoot 14.4707 -5.16189
rtoes -46.4268
lfemur -5.35435 -10.7327 4.96462
ltibia 24.4644
lfoot -19.9008 -38.2817
ltoes 14.0545
1031
root 1.94118 16.0078 36.5445 3.22704 1.95841 -1.08484
lowerback -2.72505 1.75506 -7.36754
upperback -2.71744 2.40887 -6.16908
thorax -1.32456 1.26519 -2.22081
lowerneck -6.03186 -4.73954 -1.04277
upperneck 1.31926 -6.60304 9.87093
head 1.89323 -3.0938 3.14554
rclavicle -2.15681e-014 -2.22639e-014
rhumerus -53.7352 48.3256 -81.7555
rradius 112.829
rwrist -8.51271
rhand 0.504384 -8.26737
rfingers 7.12502
rthumb 26.0734 -396.498
lclavicle -2.15681e-014 -2.22639e-014
lhumerus -55.3393 -45.2179 115.247
lradius 55.7162
lwrist 17.3766
lhand 36.3728 28.8494
lfingers 7.12502
lthumb 59.3265 43.3178
rfemur -11.2889 -0.383983 -8.45448
rtibia 28.969
rfoot 12.6671 -4.57517
rtoes -47.4943
lfemur -4.42244 -10.6074 5.38366
ltibia 22.7851
lfoot -19.4069 -39.513
ltoes 15.0402
1032
root 1.86404 15.9693 36.5663 3.28424 1.63492 -0.9763
lowerback -2.71808 1.68813 -7.10518
upperback -2.76365 2.3095 -6.335
thorax -1.35682 1.21119 -2.54084
lowerneck -5.99532 -4.52508 -0.911596
upperneck 1.10985 -6.30416 9.85254
head 1.79338 -2.9522 3.12919
rclavicle -9.93923e-016 1.90833e-014
rhumerus -51.805 49.4054 -76.4029
rradius 112.113
rwrist -10.7867
rhand 0.867197 -8.84342
rfingers 7.12502
rthumb 26.4207 -397.022
lclavicle -9.93923e-016 1.90833e-014
lhumerus -55.3411 -45.2573 115.231
lradius 55.1133
lwrist 17.3793
lhand 36.9833 29.0553
lfingers 7.12502
lthumb 59.8509 42.9912
rfemur -11.2558 -0.858431 -8.54888
rtibia 29.0499
rfoot 10.7826 -4.20941
rtoes -48.1273
lfemur -3.51511 -10.3901 5.64609
ltibia 21.3367
lfoot -19.6397 -39.9597
ltoes 14.7464
1033
root 1.79039 15.9325 36.5869 3.35808 1.27223 -0.815323
lowerback -2.71653 1.64296 -6.87168
upperback -2.81318 2.23966 -6.50642
thorax -1.39213 1.17211 -2.85092
lowerneck -5.962 -4.31912 -0.766913
upperneck 0.915006 -6.01826 9.81577
head 1.69907 -2.81689 3.10288
rclavicle -7.25564e-015 4.45278e-014
rhumerus -49.3576 50.3161 -70.6003
rradius 110.913
rwrist -12.806
rhand 1.59972 -9.38071
rfingers 7.12502
rthumb 27.1217 -397.452
lclavicle -7.25564e-015 4.45278e-014
lhumerus -55.3026 -45.222 115.135
lradius 54.5239
lwrist 17.4684
lhand 37.6933 29.2244
lfingers 7.12502
lthumb 60.4571 42.5158
rfemur -11.3212 -1.3927 -8.67734
rtibia 29.2275
rfoot 8.88617 -4.00599
rtoes -48.4724
lfemur -2.65171 -10.1892 5.72931
ltibia 20.1202
lfoot -20.5979 -39.6057
ltoes 13.2779
1034
root 1.72015 15.8977 36.6063 3.46459 0.87192 -0.584241
lowerback -2.74293 1.61713 -6.69199
upperback -2.86549 2.19905 -6.68513
thorax -1.41756 1.14799 -3.13832
lowerneck -5.93867 -4.12297 -0.611096
upperneck 0.736567 -5.74715 9.75543
head 1.61219 -2.68862 3.06521
rclavicle -8.94531e-016 3.49861e-014
rhumerus -46.371 50.9393 -64.3929
rradius 109.182
rwrist -14.4876
rhand 2.99913 -9.82577
rfingers 7.12502
rthumb 28.4597 -397.681
lclavicle -8.94531e-016 3.49861e-014
lhumerus -55.2441 -45.1286 114.972
lradius 53.9985
lwrist 17.7071
lhand 38.4153 29.4532
lfingers 7.12502
lthumb 61.0691 42.06
rfemur -11.5004 -1.96734 -8.8603
rtibia 29.4951
rfoot 7.02858 -3.91744
rtoes -48.5943
lfemur -1.84941 -10.1007 5.61902
ltibia 19.1217
lfoot -22.23 -38.4077
ltoes 10.6165
1035
root 1.65311 15.8651 36.6243 3.61462 0.445623 -0.283132
lowerback -2.81015 1.6036 -6.57405
upperback -2.92136 2.17977 -6.86975
thorax -1.42649 1.13503 -3.39677
lowerneck -5.92952 -3.93303 -0.436255
upperneck 0.575502 -5.48666 9.6665
head 1.53313 -2.5652 3.01324
rclavicle -1.69961e-014 -3.18055e-014
rhumerus -42.89 51.1467 -57.8976
rradius 106.873
rwrist -15.7833
rhand 5.24018 -10.1903
rfingers 7.12502
rthumb 30.599 -397.667
lclavicle -1.69961e-014 -3.18055e-014
lhumerus -55.2043 -45.0118 114.777
lradius 53.571
lwrist 18.1598
lhand 39.0274 29.7863
lfingers 7.12502
lthumb 61.5841 41.7886
rfemur -11.7957 -2.54874 -9.09858
rtibia 29.8393
rfoot 5.2621 -3.8974
rtoes -48.5604
lfemur -1.12347 -10.2063 5.32557
ltibia 18.3121
lfoot -24.291 -36.3776
ltoes 6.9197
1036
root 1.58942 15.8348 36.6406 3.81467 0.0185203 0.0671538
lowerback -2.92333 1.59124 -6.50261
upperback -2.98065 2.1675 -7.05323
thorax -1.41529 1.12595 -3.62724
lowerneck -5.92581 -3.74514 -0.247657
upperneck 0.421319 -5.23014 9.55613
head 1.45718 -2.44378 2.95098
rclavicle -1.13307e-014 4.13472e-014
rhumerus -39.0245 50.8101 -51.2906
rradius 103.945
rwrist -16.7274
rhand 8.38535 -10.4878
rfingers 7.12502
rthumb 33.5933 -397.361
lclavicle -1.13307e-014 4.13472e-014
lhumerus -55.2185 -44.896 114.586
lradius 53.2659
lwrist 18.8323
lhand 39.4552 30.2524
lfingers 7.12502
lthumb 61.9421 41.8183
rfemur -12.1937 -3.10721 -9.37402
rtibia 30.2416
rfoot 3.62605 -3.91396
rtoes -48.4174
lfemur -0.494217 -10.5485 4.88771
ltibia 17.6616
lfoot -26.4426 -33.6135
ltoes 2.54153
1037
root 1.52893 15.8073 36.6552 4.06745 -0.382863 0.443617
lowerback -3.08203 1.57237 -6.46516
upperback -3.04365 2.15199 -7.22752
thorax -1.38435 1.11561 -3.8283
lowerneck -5.92272 -3.56063 -0.0410718
upperneck 0.270411 -4.97943 9.42788
head 1.38253 -2.32545 2.87898
rclavicle 1.75924e-014 1.27222e-014
rhumerus -34.968 49.8121 -44.8136
rradius 100.35
rwrist -17.3541
rhand 12.2495 -10.7379
rfingers 7.12502
rthumb 37.2566 -396.736
lclavicle 1.75924e-014 1.27222e-014
lhumerus -55.33 -44.8399 114.462
lradius 53.0795
lwrist 19.7244
lhand 39.6291 30.8255
lfingers 7.12502
lthumb 62.087 42.2106
rfemur -12.6751 -3.60944 -9.66808
rtibia 30.6837
rfoot 2.14771 -3.9607
rtoes -48.2003
lfemur 0.0189382 -11.1361 4.35277
ltibia 17.1436
lfoot -28.3758 -30.3003
ltoes -2.06252
